#N canvas 626 291 450 300 10;
#X msg 81 11 send 1 2 3 4;
#X obj 82 149 udpsend6;
#X msg 91 34 connect ::1 3333;
#X msg 109 56 multicast_loopback 1;
#X msg 137 121 disconnect;
#X floatatom 23 39 5 0 0 0 - - -, f 5;
#X obj 367 118 print r-info;
#X msg 274 53 status;
#X obj 274 120 print r;
#X obj 82 177 print s-connected;
#X msg 120 87 multicast_ttl 1;
#X obj 274 86 udpreceive6 3333;
#X connect 0 0 1 0;
#X connect 1 0 9 0;
#X connect 2 0 1 0;
#X connect 3 0 1 0;
#X connect 4 0 1 0;
#X connect 5 0 1 0;
#X connect 7 0 11 0;
#X connect 10 0 1 0;
#X connect 11 0 8 0;
#X connect 11 1 6 0;
